# xmcd
#
# Track frame offsets: 
#        150
#        4510
#        25670
#        51075
#        67521
#        86576
#        112154
#        125813
#        145161
#        165043
#        179352
#        196244
#        201437
#        215881
#
# Disc length: 3247 seconds
#
# Revision: 0
# Processed by: cddbd v1.5.2PL0 Copyright (c) Steve Scherf et al.
# Submitted via: ExactAudioCopy v0.99pb4
#
DISCID=be0cad0e
DTITLE=Gretchen Peters with Tom Russell - One to the Heart, One to the
DTITLE=Head
DYEAR=2009
DGENRE=Country
TTITLE0=North Platte
TTITLE1=Prairie In the Sky
TTITLE2=Billy 4
TTITLE3=Blue Mountains of Mexico
TTITLE4=These Cowboys Born Out of Their Time
TTITLE5=Guadalupe
TTITLE6=Sweet and Shiny GuadalupeEyes
TTITLE7=Wolves
TTITLE8=Snowin' On Raton
TTITLE9=Old Paint
TTITLE10=My Last Go Round
TTITLE11=North Platte (reprise)
TTITLE12=If I Had a Gun
TTITLE13=Prairie Melancholy
EXTD=
EXTT0=
EXTT1=
EXTT2=
EXTT3=
EXTT4=
EXTT5=
EXTT6=
EXTT7=
EXTT8=
EXTT9=
EXTT10=
EXTT11=
EXTT12=
EXTT13=
PLAYORDER=
